<svg width="24" height="24" viewBox="0 0 24 24" fill="none" xmlns="http://www.w3.org/2000/svg">
<path fill-rule="evenodd" clip-rule="evenodd" d="M17.8703 8.91239L15.2192 4.3522C15.0311 4.02858 14.6235 3.92342 14.3099 4.11793C13.9963 4.31245 13.8944 4.73268 14.0829 5.0563L16.7341 9.61649C16.9221 9.94011 17.3297 10.0453 17.6433 9.85076C17.9569 9.65624 18.0588 9.23601 17.8703 8.91239Z" fill="#006F45"/>
<path fill-rule="evenodd" clip-rule="evenodd" d="M7.26587 9.61654L9.91702 5.05636C10.1051 4.73274 10.0036 4.31207 9.69001 4.11799C9.37643 3.9239 8.96882 4.02864 8.78075 4.35226L6.12961 8.91244C5.94154 9.23606 6.04303 9.65673 6.35661 9.85081C6.67019 10.0449 7.07781 9.94016 7.26587 9.61654Z" fill="#006F45"/>
<path fill-rule="evenodd" clip-rule="evenodd" d="M20.6073 9.37487C20.6392 9.17693 20.5845 8.9743 20.459 8.82125C20.3327 8.66906 20.1479 8.58057 19.9536 8.58057H4.04638C3.8521 8.58057 3.66735 8.66906 3.541 8.82125C3.41549 8.9743 3.36081 9.17693 3.3927 9.37487C3.3927 9.37487 4.29575 15.0696 4.74023 17.8775C4.93285 19.0903 5.94816 19.9804 7.13869 19.9804H16.8613C18.0519 19.9804 19.0672 19.0903 19.2598 17.8775L20.6073 9.37487ZM11.337 12.4563V16.1042C11.337 16.4817 11.634 16.7882 11.9998 16.7882C12.3656 16.7882 12.6626 16.4817 12.6626 16.1042V12.4563C12.6626 12.0788 12.3656 11.7723 11.9998 11.7723C11.634 11.7723 11.337 12.0788 11.337 12.4563ZM14.8722 12.4563V16.1042C14.8722 16.4817 15.1692 16.7882 15.5349 16.7882C15.9007 16.7882 16.1977 16.4817 16.1977 16.1042V12.4563C16.1977 12.0788 15.9007 11.7723 15.5349 11.7723C15.1692 11.7723 14.8722 12.0788 14.8722 12.4563ZM7.8023 12.4563V16.1042C7.8023 16.4817 8.09931 16.7882 8.46509 16.7882C8.83086 16.7882 9.12787 16.4817 9.12787 16.1042V12.4563C9.12787 12.0788 8.83086 11.7723 8.46509 11.7723C8.09931 11.7723 7.8023 12.0788 7.8023 12.4563Z" fill="#006F45"/>
<path fill-rule="evenodd" clip-rule="evenodd" d="M20.8372 8.58057H3.16279C2.79701 8.58057 2.5 8.88709 2.5 9.26457C2.5 9.64206 2.79701 9.94858 3.16279 9.94858H20.8372C21.203 9.94858 21.5 9.64206 21.5 9.26457C21.5 8.88709 21.203 8.58057 20.8372 8.58057Z" fill="#006F45"/>
</svg>
