<svg width="24" height="24" viewBox="0 0 24 24" fill="none" xmlns="http://www.w3.org/2000/svg">
<path d="M19.2222 15.2682L16.6822 14.9782C16.0722 14.9082 15.4722 15.1182 15.0422 15.5482L13.2022 17.3882C10.3722 15.9482 8.05223 13.6382 6.61223 10.7982L8.46223 8.94819C8.89223 8.51819 9.10223 7.91819 9.03223 7.30819L8.74223 4.78819C8.62223 3.77819 7.77223 3.01819 6.75223 3.01819H5.02223C3.89223 3.01819 2.95223 3.95819 3.02223 5.08819C3.55223 13.6282 10.3822 20.4482 18.9122 20.9782C20.0422 21.0482 20.9822 20.1082 20.9822 18.9782V17.2482C20.9922 16.2382 20.2322 15.3882 19.2222 15.2682Z" fill="#0D0D0B"/>
</svg>
