<svg width="20" height="16" viewBox="0 0 20 16" fill="none" xmlns="http://www.w3.org/2000/svg">
<path fill-rule="evenodd" clip-rule="evenodd" d="M15.8703 4.91196L13.2192 0.351776C13.0311 0.0281561 12.6235 -0.0770098 12.3099 0.117504C11.9963 0.312019 11.8944 0.732255 12.0829 1.05588L14.7341 5.61606C14.9221 5.93968 15.3297 6.04484 15.6433 5.85033C15.9569 5.65582 16.0588 5.23558 15.8703 4.91196Z" fill="#0D0D0B"/>
<path fill-rule="evenodd" clip-rule="evenodd" d="M5.26587 5.61605L7.91702 1.05587C8.10508 0.732248 8.00359 0.311584 7.69001 0.117498C7.37643 -0.0765892 6.96882 0.0281493 6.78075 0.35177L4.12961 4.91195C3.94154 5.23557 4.04303 5.65624 4.35661 5.85032C4.67019 6.04441 5.07781 5.93967 5.26587 5.61605Z" fill="#0D0D0B"/>
<path fill-rule="evenodd" clip-rule="evenodd" d="M18.6073 5.3745C18.6392 5.17657 18.5845 4.97393 18.459 4.82089C18.3327 4.66869 18.1479 4.5802 17.9536 4.5802H2.04638C1.8521 4.5802 1.66735 4.66869 1.541 4.82089C1.41549 4.97393 1.36081 5.17657 1.3927 5.3745C1.3927 5.3745 2.29575 11.0693 2.74023 13.8771C2.93285 15.09 3.94816 15.98 5.13869 15.98H14.8613C16.0519 15.98 17.0672 15.09 17.2598 13.8771L18.6073 5.3745ZM9.33702 8.45595V12.1038C9.33702 12.4813 9.63403 12.7878 9.99981 12.7878C10.3656 12.7878 10.6626 12.4813 10.6626 12.1038V8.45595C10.6626 8.07846 10.3656 7.77194 9.99981 7.77194C9.63403 7.77194 9.33702 8.07846 9.33702 8.45595ZM12.8722 8.45595V12.1038C12.8722 12.4813 13.1692 12.7878 13.5349 12.7878C13.9007 12.7878 14.1977 12.4813 14.1977 12.1038V8.45595C14.1977 8.07846 13.9007 7.77194 13.5349 7.77194C13.1692 7.77194 12.8722 8.07846 12.8722 8.45595ZM5.8023 8.45595V12.1038C5.8023 12.4813 6.09931 12.7878 6.46509 12.7878C6.83086 12.7878 7.12787 12.4813 7.12787 12.1038V8.45595C7.12787 8.07846 6.83086 7.77194 6.46509 7.77194C6.09931 7.77194 5.8023 8.07846 5.8023 8.45595Z" fill="#0D0D0B"/>
<path fill-rule="evenodd" clip-rule="evenodd" d="M18.8372 4.5802H1.16279C0.797011 4.5802 0.5 4.88672 0.5 5.26421C0.5 5.64169 0.797011 5.94821 1.16279 5.94821H18.8372C19.203 5.94821 19.5 5.64169 19.5 5.26421C19.5 4.88672 19.203 4.5802 18.8372 4.5802Z" fill="#0D0D0B"/>
</svg>
