<svg width="24" height="24" viewBox="0 0 24 24" fill="none" xmlns="http://www.w3.org/2000/svg">
<path d="M12.0002 2.49976C6.75317 2.49976 2.5 6.75292 2.5 12C2.5 17.247 6.75317 21.5002 12.0002 21.5002C17.2472 21.5002 21.5004 17.247 21.5004 12C21.4939 6.75576 17.2444 2.50583 12.0002 2.49976ZM15.2016 15.2014C14.8644 15.5386 14.3179 15.5386 13.9802 15.2014L11.3893 12.6104C11.2274 12.4485 11.1363 12.2287 11.1363 12V6.8181C11.1363 6.34121 11.5229 5.9546 11.9998 5.9546C12.4767 5.9546 12.8633 6.34121 12.8633 6.8181V11.6425L15.2012 13.9804C15.5384 14.3176 15.5384 14.8641 15.2012 15.2018L15.2016 15.2014Z" fill="#006F45"/>
</svg>
