<svg width="24" height="24" viewBox="0 0 24 24" fill="none" xmlns="http://www.w3.org/2000/svg">
<path d="M21.4822 9.1319L20.4075 4.83092C20.2758 4.30248 19.8008 3.93213 19.2556 3.93213H4.74549C4.20035 3.93213 3.72535 4.30248 3.5925 4.83092L2.51781 9.1319C2.50594 9.17828 2.5 9.22689 2.5 9.27551C2.5 10.912 3.76469 12.2443 5.32031 12.2443C6.22393 12.2443 7.03031 11.7941 7.54688 11.0961C8.06344 11.7945 8.86982 12.2443 9.77344 12.2443C10.6771 12.2443 11.4834 11.7941 12 11.0961C12.5166 11.7945 13.3218 12.2443 14.2266 12.2443C15.1313 12.2443 15.9366 11.7941 16.4531 11.0961C16.9697 11.7945 17.775 12.2443 18.6797 12.2443C20.2353 12.2443 21.5 10.912 21.5 9.27551C21.5 9.22689 21.4941 9.17828 21.4822 9.1319Z" fill="#006F45"/>
<path d="M18.6797 12.9428C17.8711 12.9428 17.1025 12.6956 16.4531 12.2444C15.1539 13.148 13.2992 13.148 12 12.2444C10.7008 13.148 8.84607 13.148 7.54688 12.2444C6.89746 12.6956 6.12893 12.9428 5.32031 12.9428C4.73732 12.9428 4.18736 12.8062 3.6875 12.5735V18.8803C3.6875 19.5356 4.21965 20.0678 4.875 20.0678H9.625V15.3178H14.375V20.0678H19.125C19.7804 20.0678 20.3125 19.5356 20.3125 18.8803V12.5735C19.8126 12.8062 19.2627 12.9428 18.6797 12.9428Z" fill="#006F45"/>
</svg>
