<svg width="24" height="24" viewBox="0 0 24 24" fill="none" xmlns="http://www.w3.org/2000/svg">
<path d="M20.4807 13.8626C19.8004 13.7859 19.1285 13.6467 18.4737 13.4469C18.076 13.3243 17.6524 13.3122 17.2484 13.412C16.8443 13.5117 16.475 13.7195 16.18 14.0131L14.9328 15.2589C12.5356 13.9435 10.5633 11.9717 9.2474 9.57487L10.4946 8.32912C10.7879 8.03399 10.9955 7.66462 11.095 7.26058C11.1945 6.85653 11.1822 6.43303 11.0594 6.03544C10.8597 5.38057 10.7206 4.70877 10.6437 4.02847C10.5805 3.46966 10.3135 2.95376 9.89377 2.5795C9.47402 2.20525 8.931 1.99892 8.36863 2H5.29368C4.68536 2 4.10195 2.24166 3.6718 2.67181C3.24165 3.10195 3 3.68536 3 4.29368C3 4.36392 3 4.43704 3.01003 4.50441C3.21015 6.70368 3.7989 8.85 4.74893 10.8436C5.67419 12.7834 6.92515 14.5503 8.44748 16.0674C9.9652 17.5871 11.732 18.8356 13.6713 19.7588C15.6614 20.7072 17.8037 21.2954 19.999 21.4963C20.3167 21.526 20.6371 21.4891 20.9398 21.3879C21.2424 21.2867 21.5206 21.1236 21.7566 20.9088C21.9925 20.694 22.1811 20.4323 22.3102 20.1405C22.4393 19.8487 22.5061 19.5331 22.5063 19.214V16.1391C22.5078 15.5767 22.3018 15.0335 21.9278 14.6135C21.5538 14.1935 21.038 13.9261 20.4792 13.8626" fill="#006F45"/>
</svg>
