<svg width="24" height="24" viewBox="0 0 24 24" fill="none" xmlns="http://www.w3.org/2000/svg">
<path d="M20.7205 16.949C20.1949 16.4234 18.5386 15.2003 16.894 14.2533C16.8763 14.2801 16.8585 14.3069 16.8404 14.3365C18.6959 11.347 18.3308 7.36597 15.7332 4.76845C12.7052 1.74353 7.79795 1.74353 4.76988 4.76845C1.7418 7.79968 1.74495 12.7037 4.76988 15.7318C7.34374 18.3025 11.2712 18.6917 14.2519 16.8926C15.1099 18.383 16.3598 20.1316 16.9504 20.7222C17.9893 21.7612 19.6816 21.7584 20.7205 20.7191C21.7594 19.677 21.7594 17.9907 20.7205 16.949ZM13.6905 13.6891C11.7904 15.5859 8.71505 15.5859 6.81501 13.6859C4.91812 11.789 4.91497 8.71323 6.81501 6.81319C8.71505 4.91315 11.7904 4.9163 13.6877 6.81319C15.5878 8.71323 15.5878 11.7918 13.6909 13.6887L13.6905 13.6891Z" fill="#006F45"/>
</svg>
