<svg width="20" height="20" viewBox="0 0 20 20" fill="none" xmlns="http://www.w3.org/2000/svg">
<path d="M18.7205 14.9491C18.1949 14.4235 16.5386 13.2005 14.894 12.2534C14.8763 12.2802 14.8585 12.307 14.8404 12.3366C16.6959 9.34715 16.3308 5.36609 13.7332 2.76857C10.7052 -0.256353 5.79795 -0.256353 2.76988 2.76857C-0.258202 5.7998 -0.255048 10.7039 2.76988 13.7319C5.34374 16.3027 9.27117 16.6918 12.2519 14.8927C13.1099 16.3831 14.3598 18.1317 14.9504 18.7224C15.9893 19.7613 17.6816 19.7585 18.7205 18.7192C19.7594 17.6771 19.7594 15.9908 18.7205 14.9491ZM11.6905 11.6892C9.79044 13.5861 6.71505 13.5861 4.81501 11.686C2.91812 9.78913 2.91497 6.71335 4.81501 4.81331C6.71505 2.91327 9.79044 2.91643 11.6877 4.81331C13.5878 6.71335 13.5878 9.79189 11.6909 11.6888L11.6905 11.6892Z" fill="#0D0D0B"/>
</svg>
