<svg width="24" height="24" viewBox="0 0 24 24" fill="none" xmlns="http://www.w3.org/2000/svg">
	<path d="M21.4822 9.13202L20.4075 4.83104C20.2758 4.3026 19.8008 3.93225 19.2556 3.93225H4.74549C4.20035 3.93225 3.72535 4.3026 3.5925 4.83104L2.51781 9.13202C2.50594 9.1784 2.5 9.22702 2.5 9.27563C2.5 10.9122 3.76469 12.2444 5.32031 12.2444C6.22393 12.2444 7.03031 11.7942 7.54688 11.0962C8.06344 11.7946 8.86982 12.2444 9.77344 12.2444C10.6771 12.2444 11.4834 11.7942 12 11.0962C12.5166 11.7946 13.3218 12.2444 14.2266 12.2444C15.1313 12.2444 15.9366 11.7942 16.4531 11.0962C16.9697 11.7946 17.775 12.2444 18.6797 12.2444C20.2353 12.2444 21.5 10.9122 21.5 9.27563C21.5 9.22702 21.4941 9.1784 21.4822 9.13202Z" fill="#0D0D0B"/>
	<path d="M18.6797 12.9428C17.8711 12.9428 17.1025 12.6956 16.4531 12.2444C15.1539 13.148 13.2992 13.148 12 12.2444C10.7008 13.148 8.84607 13.148 7.54688 12.2444C6.89746 12.6956 6.12893 12.9428 5.32031 12.9428C4.73732 12.9428 4.18736 12.8062 3.6875 12.5735V18.8803C3.6875 19.5356 4.21965 20.0678 4.875 20.0678H9.625V15.3178H14.375V20.0678H19.125C19.7804 20.0678 20.3125 19.5356 20.3125 18.8803V12.5735C19.8126 12.8062 19.2627 12.9428 18.6797 12.9428Z" fill="#0D0D0B"/>
</svg>
